<svg xmlns="http://www.w3.org/2000/svg" viewBox="0 0 124.9 58.9" fill="#fff" xmlns:v="https://vecta.io/nano"><path d="M118.7 12.1a65.42 65.42 0 0 1-5.2 8.4c-.9 1.4-2 2.6-3 3.9s-2.1 2.5-3.3 3.7A91.1 91.1 0 0 1 92 40.6l-2 1.5-2.1 1.3-4.3 2.5-8.8 4.4c-6 2.8-12.2 5-18.6 6.7a85.83 85.83 0 0 1-9.9 1.8 88.48 88.48 0 0 1-10.3 0c-3.4-.2-6.8-.9-10.1-1.9-3.4-1-6.6-2.5-9.5-4.4s-5.6-4.2-8-6.8c-2.3-2.6-4.2-5.6-5.7-8.7-3.1-6.3-3.6-13.7-1.2-20.4.3-.6 1-.9 1.6-.7.5.2.8.7.8 1.3h0a27.25 27.25 0 0 0 3.5 17.4c1.5 2.6 3.2 5 5.3 7.2s4.4 4.1 6.9 5.7 5.2 2.9 8.1 3.8c1.4.5 2.9.8 4.4 1.2l2.3.4 2.3.3c3.1.4 6.2.5 9.3.3a71.65 71.65 0 0 0 9.3-1.2c3.1-.6 6.2-1.3 9.2-2.3 3.1-.9 6.1-2 9-3.2 6-2.3 11.7-5.2 17.2-8.6a79.05 79.05 0 0 0 15-12c4.5-4.6 8.2-9.8 10.9-15.5h0c.3-.6 1-.9 1.6-.6.6.7.8 1.4.5 2h0zm5.6-4V5c0-1.1.1-2.1.2-3.2v-.1c0-.9-.7-1.7-1.6-1.7h-.7c-2.4-.1-4.7.1-7 .7-2.4.5-4.5 1.7-6.1 3.5l-1 1.1c-.7.7-.7 1.7-.1 2.3.7.7 1.8.8 2.5.1l.1-.1v.1c2.1-.2 4.2-.6 6.1-1.5l4.2-1.6c.1.2.1.5.2.7l.6 3.1c.4 2.1.6 4.1.7 6.2v.2c.1.7.8 1.1 1.4 1 .7-.1 1.1-.8 1-1.4-.3-2.2-.5-4.2-.5-6.3z"/></svg>