<svg xmlns="http://www.w3.org/2000/svg" viewBox="0 0 1080 1080" xmlns:v="https://vecta.io/nano"><path d="M638.6 438.8C636.9 490 606.3 526 551.8 540c-3.9 1-7.9 2.9-11.5 2.3-4.3-.6-8.3-3.5-12.4-5.4 2.7-4 4.6-9.9 8.4-11.6 10.8-4.6 22.6-7 33.7-11.3 30.8-12 50-41.3 49.4-74.4-.2-9.9-5.9-16.6-16.1-18.8-10.8-2.3-20.6 1.9-24.3 11-1.9 4.6-2.8 9.7-4.1 14.5-8.7 32.6-39.1 49.2-70.9 48.5-3.1-.1-8.8-4.9-8.6-6.9.5-3.6 4.1-7.2 7.3-9.9 1.5-1.3 4.9-.5 7.4-.7 23.4-2.7 44.2-13.7 49.6-44.3 3.2-18.1 15.8-28.8 32.9-31 16.7-2.1 33.7 6.2 40.8 20.5 2.5 5.1 3.5 10.9 5.2 16.3zm40.1 15.4c6-41.1-17.1-70.1-47.7-82.4-34.7-14-75.6-4.6-98.1 23.9-6.9 8.7-10.6 20.2-15.1 30.6-2.7 6.2-4.8 13.2-13.4 10.2-7.9-2.7-6.1-9.3-4.4-15.5 11.5-41.5 45.5-69.8 87.9-73.2 45.4-3.6 85.4 18.5 102.9 56.8 8.1 17.7 7.7 36.3 6.5 55.2-.4 6.6 2.8 13.3 3.5 20.1.4 3.9.4 9.3-1.8 11.4-2.3 2.1-9 2-11 .1-4.1-4.1-7.7-9.8-8.7-15.3-1.7-7.7-.6-15.8-.6-21.9zm-30.8 15.2c.5-9 1.6-18 1.4-26.9-.4-25.9-17.6-45.4-42.8-49-27-3.9-49.8 9.6-58 34.2-1.7 5.2-2.6 10.5-4.6 15.5-7.4 18.2-25.9 28-44.9 23-3.6-1-5.9-6.5-8.9-10 3.6-2.6 7.2-7.5 10.8-7.6 20.2-.2 23-1.9 28.5-21.5 9.3-33 36.3-53.5 69.2-52.8 33.9.8 61.8 22.7 67.5 54.4 1.9 10.8 1.3 22.3 0 33.3-2.1 17.8.5 32.1 18.8 40.3 2.8 1.3 3.1 8 4.6 12.2-4.7 1-10.5 4.2-14 2.6-19.7-9.2-29.5-25.2-27.6-47.7zm-40.6-30.9c-3.2 35.6-19.9 57.4-48.7 69.7-11.8 5.1-24.5 7.9-36.9 11.5-6.3 1.8-12.8 2.3-14.7-5.9-2-9 5.2-10.1 11.5-12.2 14.9-4.9 30.3-8.9 44.2-16 15.6-8 23.4-22.8 25.3-40.3.2-1.8.7-3.5.8-5.3.6-6 3.1-11.7 9.7-9.8 4.2 1.1 7.1 6.6 8.8 8.3zm5.9 95.9c7.8 2.6 16 4.5 23.1 8.3 2.7 1.5 4.8 8 3.9 11.3-.7 2.5-8 5.8-10.1 4.6-15.2-8.5-29.4-2.4-43.9 1.5-3.1.9-6.6 2.7-9.3 1.9-3.5-1.1-8.5-3.9-9-6.7-.6-2.8 2.6-9 5.3-9.9 12.8-4.4 26.1-7.4 40-11zm57.3-2.9c-1 9-5.7 12.8-11.9 9.5-10.1-5.3-19.6-11.7-28.4-19-2.2-1.9-.4-8.6-.4-13.1 4.2.2 9-.9 12.4.9 7.8 4.2 15.1 9.7 22.2 15 2.7 2 4.5 5 6.1 6.7z" fill="#ef6c00"/><path d="M973.2 676.3l.2-439.3c0-18.6-9.4-20.9-24.7-20.9H517.5c-89.3 0-178.6.5-267.9-.4-21-.2-28.3 6.4-27.6 27.5 1.3 39.7.4 79.5.4 120.5h-31.6c0-49.5-1.5-97.9.7-146.1.9-19.9 17.9-30.6 37.3-34.2 6.3-1.2 13-.7 19.6-.7h696.9c46.7 0 61.3 14.5 61.3 61l-.1 476.9c0 42.2-15.1 57.1-57.8 57.1-159.7 0-319.4 0-479.1-.1-29.4 0-32.4-3.1-32.6-32.3v-43.6c-.1-18.1 8.5-25.9 26.9-25.7l148.1.3h361.2zm-376.7 72.4c10.4-13.1 21.3-20.8 21.1-28.2-.3-7.9-11-15.5-17.2-23.1-8 6.8-20.2 12.4-22.5 20.7-1.7 6.4 9.3 16.2 18.6 30.6zm-202.8-97.3v206.9c0 30.4-8.2 39-38.5 39.1-81.3.1-162.6.1-243.9-.1-27.3 0-37.8-10.7-37.9-38.3V445.2c0-28.4 9.1-37.3 38.1-37.4h248.3c24.5 0 33.7 9.5 33.7 34.5v209.1h.2zm-23.8 1l.4-165.5c.3-17.8-5.9-21.9-22.5-21.8H119.1c-17.6-.2-22.6 6-22.5 22.5v333.2c-.1 15.8 6.3 19.7 20.8 19.6l233 .1c15.4.1 19.9-5.4 19.7-20.4l-.2-167.7zM197.2 437.3l-.5 8.1h75.2c0-2 .1-4 .1-6-24.7-6.9-49.8-3.2-74.8-2.1zM255 862.2c-9-7.4-15.2-16.1-19.7-15.3-6.5 1.1-11.6 9.2-17.3 14.4 5.4 5.5 10.1 13.9 16.4 15.4 4.4 1 11.1-7.4 20.6-14.5zm540-9v39H440.2c-9.2-34.6-6-39 27.4-39 8.7 0 17.5-.6 26.1.1 20.6 1.7 38.4 1.3 33.6-28.1-.5-2.7 7.9-9.9 12.3-10l126.3-.7c14.2-.2 15.5 7.9 14.3 18.2-1.9 16.8 5.8 21.2 21.5 20.6 30.4-.8 60.8-.1 93.3-.1z" fill="#212121"/></svg>