<svg xmlns="http://www.w3.org/2000/svg" viewBox="0 0 515.44 517" xmlns:v="https://vecta.io/nano"><path d="M28.36 177c8.063-12.43 14.898-25.574 22.318-38.378l30.494-53.455c4.935-8.82 12.1-12.865 22.2-12.856l308.08.002c10.106-.008 17.185 4.142 22.153 12.937l48.14 83.953c4.615 7.776 5.1 15.116 3.22 23.384-3.572 15.62-11.784 28.136-24.724 37.495-1.937 1.4-2.58 2.772-2.577 5.087l-.02 192.27c-.004 2.956.8 4.005 3.692 3.603 1.315-.183 2.683-.094 4.02-.008 3.854.247 6.56 2.904 6.655 6.457.095 3.538-2.487 6.41-6.29 6.88-1.176.145-2.382.07-3.573.07-136.527.002-273.054.003-409.58-.005-1.487 0-3.04.144-4.447-.22-3.608-.934-5.706-3.378-5.336-7.164.342-3.498 2.525-5.6 6.124-6.017 2.612-.304 6.3 1.203 7.585-.7 1.325-1.972.503-5.433.504-8.243l.063-186.01c.003-2.92-.772-4.706-3.273-6.534-13.178-9.636-21.172-22.692-24.447-38.665-.166-.81.165-1.854-.98-2.242V177zm18.33-4.26l15.64.016c5.2.08 8.163 2.687 8.076 6.912-.083 4.04-2.94 6.433-7.945 6.5-5.515.063-11.036.16-16.545-.042-2.772-.1-3.682.53-3.163 3.467 3.8 21.45 24.438 38.378 47.386 38.708s43.96-16.355 48.228-38.172c.6-3.066.01-4.07-3.355-4.024l-41.142.105c-3.624.017-6.473-.986-7.775-4.648-1.73-4.867 2.023-8.802 8.49-8.803h325.57c5.575.001 8.778 2.46 8.86 6.65s-3.117 6.752-8.643 6.766l-37.566.01c-7.673 0-7.673 0-5.505 7.408 6.122 20.914 26.36 35.468 48.192 34.657 22.66-.84 41.854-16.717 46.348-38.253.57-2.728.306-4.07-3.075-3.89-5.5.29-11.027.083-16.543.072-1.79-.004-3.58-.017-5.1-1.2-2.355-1.825-3.392-4.246-2.625-7.09.93-3.45 3.526-5.07 7.015-5.115l16.484-.018-1.184-2.122-45.548-79.813c-2.21-3.9-5.38-5.057-9.613-5.055-102.86.05-205.718.056-308.577-.017-4.715-.003-7.798 1.706-10.09 5.828l-21.172 37.225L46.7 172.75zm99.462 35.275c-.555.875-.965 1.477-1.332 2.104-14.767 25.252-42.698 36.94-70.793 29.29-3.912-1.065-3.63.44-3.63 3.17l-.06 184.263c-.008 3.724 1.212 4.24 4.485 4.235l242.85.034c3.967.006 4.863-.954 4.852-4.874l-.09-158.323c.002-7.084 1.922-9.003 9.03-9.008l81.397.002c6.893.006 9.01 2.175 9.017 9.125l-.09 158.77c-.016 3.633 1.056 4.495 4.437 4.278 4.454-.285 8.974-.4 13.403.03 4.154.412 4.75-1.16 4.743-4.904l-.085-187.38c-32.852 8.194-58.023-1.932-75.867-30.604-12.413 21.157-30.473 33.326-55.3 33.396-24.946.07-43.124-12.124-55.8-33.493-12.597 21.345-30.666 33.464-55.458 33.49-24.997.03-43.165-12.228-55.72-33.6zm189.706 125.542l-.068 57.672c-.02 3.048.684 4.017 3.89 3.996l64.824.02c3.6.033 4.026-1.21 4.018-4.324l.012-114.45c.01-3.293-.71-4.248-4.135-4.22-21.458.173-42.92.197-64.377-.015-3.784-.037-4.25 1.31-4.228 4.544l.065 56.778zm-134.2-105.262c23.015.094 43.28-16.293 47.853-38.457.615-2.984.244-3.747-2.913-3.735l-89.306.007c-3.168-.01-4.04.51-3.25 3.94 5.167 22.37 24.667 38.152 47.615 38.245zm111.518-42.127c-14.884 0-29.77.13-44.65-.092-3.702-.055-4 .914-3.27 4.222 4.768 21.91 24.996 38.098 47.798 37.997 23.08-.102 43.023-16.362 47.707-38.7.617-2.945-.115-3.51-2.935-3.485l-44.65.058zm58.65 222.41c-10.864 0-21.73.1-32.592-.07-2.753-.042-3.574.664-3.453 3.444.232 5.348.168 10.715.02 16.07-.062 2.268.518 3.05 2.936 3.04l66.972-.013c2.116.006 2.84-.58 2.782-2.75-.14-5.354-.207-10.72.02-16.07.122-2.88-.665-3.775-3.647-3.725l-33.038.073z" fill="#2a2a2b"/><path d="M196.352 258.9l93.918.004c7.886.002 9.712 1.845 9.714 9.805l-.001 130.145c-.002 7.764-2.013 9.736-9.844 9.737h-187.4c-8 0-9.914-1.94-9.915-10.09V268.8c0-8.058 1.864-9.9 10.046-9.9h93.472zm.18 136.256l85.407.086c3.67.02 4.698-.895 4.685-4.625l-.005-113.578c.012-3.577-.675-4.786-4.558-4.777l-171.708.012c-3.375-.007-4.174.85-4.163 4.2l-.016 114.472c-.015 3.717 1.185 4.303 4.506 4.29l85.852-.07z" fill="#ec6c0c"/></svg>