<svg xmlns="http://www.w3.org/2000/svg" viewBox="0 0 1080 1080" xmlns:v="https://vecta.io/nano"><path d="M379.4 585.1l191.8-191.9 455.2 455.2c2.4-6.2 1.7-10.6 1.7-14.8l-.1-59.9c-.1-7 2.5-9.4 9.3-9.1 10.2.4 20.4 0 30.6.2 9.1.2 9.2.3 9.4 10.1.2 10.2 0 20.4 0 30.6V920c0 13-.1 13-13.3 13H920.3c-12.2 0-12.3-.1-12.3-12.6-.1-8.9.3-17.8-.1-26.6-.3-6.8 2.2-9.4 9.1-9.3l61.2.1h15.2c-4.7-5.1-7.5-8.4-10.5-11.4L582 472.3c-1.9-1.9-3.9-3.7-5.7-5.6-3.4-3.8-6.7-3.6-10.1 0-2.4 2.6-5 5-7.5 7.5L390.3 642.7c-2.2 2.2-4.5 4.3-6.6 6.6-3.3 3.8-6.4 4.1-9.9.2-2-2.3-4.4-4.4-6.6-6.6L12.5 288c-13.4-13.4-13.2-10.2.4-24.1L30.8 246c2.7-2.7 5.1-3.1 7.9-.1 2.4 2.6 5 5 7.5 7.5l322 321.7c3.4 3.5 6.4 7.5 11.2 10zm191.2 70.4L380.1 846c-5-2.1-7.4-5.5-10.2-8.3l-143-143c-1.9-1.9-3.7-3.9-5.6-5.6-3-2.7-2.7-5.2 0-7.9l25.4-25.4c3.7-3.8 6.7-3.2 10 .4 2.1 2.3 4.4 4.4 6.6 6.6L371.5 771c8.7 8.7 7.5 7.6 15.2-.1l173.1-173.1c2.2-2.2 4.6-4.2 6.5-6.6 3.2-3.8 6.2-4.5 9.7-.3 1.7 2 3.7 3.8 5.6 5.7l261.5 261.6c11 11 11.4 8.8.2 20.2l-18.8 18.9c-4 4.3-7.3 4-11-.2-2.4-2.6-5-5-7.5-7.5L582 665.7c-3.4-3.6-6.4-7.5-11.4-10.2zm-401.4-18.3l-66.5-66.4c-4-4-4.4-6.8-.2-10.8 8.4-7.9 16.5-16.1 24.4-24.4 3.7-3.9 6.2-3.3 9.7.2l62 62.1c3.5 3.5 3.9 6.2.1 9.9l-29.5 29.4z" fill="#212121"/><path d="M418.4 366.5c.1-9.6-3.7-18.8-10.7-25.5-7.1-7.1-18.8-13.4-35-19-22.4-6.8-39.4-15.8-50.8-27.2-11.4-11.3-17.1-26.4-17.1-45.4 0-18.3 5.2-33.3 15.7-44.8s25-18.5 43.4-20.8V147h26.3v37c18.7 2.7 33.1 10.6 43.4 23.9S449 239 449 261.3h-32.6c0-15.1-3.5-27.3-10.5-36.7-7-9.3-16.7-14-29.1-14-13.1 0-22.9 3.4-29.4 10.2s-9.7 16.2-9.7 28.1c0 10.8 3.4 19.5 10.1 26.2s18.9 13 36.4 19c22.8 7.3 39.6 16.5 50.6 27.4s16.5 25.8 16.5 44.6c0 19.1-5.7 34.3-17.2 45.6s-27.2 18-47.1 20.1v32h-26.2v-31.9c-19.1-2-34.8-9-47-20.9s-18.1-29.4-17.6-52.5l.3-.8h31.6c0 17.1 4.3 29.3 12.9 36.6s19.2 10.9 31.7 10.9c14.3 0 25.5-3.4 33.6-10.3 8-6.8 12.1-16.3 12.1-28.4z" fill="#ef6c00"/></svg>