<svg xmlns="http://www.w3.org/2000/svg" viewBox="0 0 1080 1080" xmlns:v="https://vecta.io/nano"><path d="M437.8 941.6c-36-7.7-71.5-16.4-102.8-37.2-71.7-47.5-108.6-114.7-111.1-200.2-1.3-46.4-.2-92.8-.2-139.2 0-59.3 28.2-91.6 89.3-99.8v-95.3c-.2-36.8 6.3-72.2 23.3-105.1 35.7-69 91.4-110.8 168.5-123.3 2.8-.4 5.4-2 8.1-3h46.4c30.4 10.9 63.4 17.4 90.8 33.5 70 41.4 105.8 105.5 108.7 186.9 1.3 34.9.2 70 .2 105.1 11.5 2.8 22.1 4.2 31.8 8 34.1 13.5 55.6 39.6 56.6 75.4 1.8 62.8 3.2 126.3-3 188.7C834 840.8 748.1 924.2 644 938.5c-3.4.5-6.6 2-9.9 3.1H437.8zm98.5-446.1c-73.1 0-146.3-.2-219.4 0-38.5.1-63.5 24.8-64 63.6l.1 146.3c2.4 109 79.2 195.3 187.4 204.3 63.4 5.3 127.1 5.3 190.6 0 109.8-9.2 186.6-96.7 188-207.4V561.4c-.3-41.8-24.8-65.9-67-66-71.9-.1-143.9-.1-215.8 0v.1h.1zm-130.8-30.6h264.2V360.2c-.3-67.7-51.7-124.8-118.5-131.9-68.8-7.3-134 36.2-144.4 103.8-6.6 42.7-1.3 87.3-1.3 132.7v.1zm324.2.5c0-37.8 1.1-73.5-.2-109-3.3-93.9-73.3-173.5-162.2-185.7-98.5-13.6-185.9 39.7-215.7 132.5-16.9 52.7-7 107.1-9.7 161.8h31.2l.1-107.8c1.5-78.1 58.8-143 137.5-157 72.8-12.9 150.7 31.2 176.5 102.7 7.7 21.3 9.9 45.1 11.2 67.9 1.8 31.2.5 62.6.5 94.5l30.8.1z" fill="#212121"/><path d="M491.5 746.2c2.4-13.7-2.1-29.1-14.9-45-24.6-30.7-17.9-74.3 11.7-99 28.9-24.1 72.3-22.5 99.2 3.6 28.3 27.4 29.8 72.2 3.6 101.5-8.3 9.4-11.5 18.2-10.8 30.1.7 13.7.7 27.3-.1 41-1.5 24.8-20.2 43-43.4 43.4-24.1.4-43.3-18-45.1-43.6-.6-8.9-.2-17.9-.2-32zm29.1-6.3c0 11.3-1.8 23 .6 33.7 1.5 7 8.3 16.6 14.2 17.9 11.9 2.6 15.8-7.5 15.8-18.2l-.1-57.1c-.2-9.4 1-16 10.6-21.7 17-10.1 22.8-30 16.8-48.2-6.1-18.7-24.2-32.4-42.7-32.4-17.9 0-35.1 12.6-41.9 30.8-6.5 17.5-1.3 38.1 15.1 48.9 9.4 6.1 12.6 12.7 11.6 23.1-.6 7.7-.1 15.5 0 23.2h0z" fill="#ef6c00"/></svg>