<svg xmlns="http://www.w3.org/2000/svg" viewBox="0 0 515.44 517" xmlns:v="https://vecta.io/nano"><path d="M135.5 517c-16.72-6-26.3-20.7-38.57-32.1a9.84 9.84 0 0 1-.46-14.43c4-4.2 10.18-4.25 14.8.23 6.9 6.66 13.57 13.55 20.4 20.3 7.74 7.65 14.9 7.62 22.7-.08l13.57-13.56c8.82-8.83 8.62-14.1.27-23.37-13.63-15.14-28.53-29-42.83-43.47l-58.56-58.5a102.81 102.81 0 0 0-7.86-7c-3.94-3.2-11.22-3-15.43.9-6.9 6.4-13.64 13-20 20-5 5.45-4.18 12.8 1.43 18.58l21.72 21.82a10.1 10.1 0 0 1-6.36 17.23 9.91 9.91 0 0 1-8.18-3.13L9.05 397.1c-11.965-12.724-12.083-32.525-.27-45.4 6.47-7.06 13.25-13.9 20.34-20.33 9.75-8.84 21.28-11.12 33.77-7 2.9.94 4.47.6 6.52-1.5l28.2-28.18c1.66-1.64 2.76-2.6.58-5.12-17.1-19.76-11.52-45.63 12.06-56.85.45-.2.87-.5 1.6-.9-5.14-8.64-7.24-17.87-4.8-27.8 3-12.37 10.63-20.8 22.5-25.1 3.26-1.18 4.35-2.16 3.68-5.84-3-16.8 7-33.17 23.42-38.75 2.6-.88 3.8-1.4 3.27-4.94-3.88-26.46 17.76-46 44-40 1.3.3 2.4 1 3.72-.2 9.15-8.15 19.94-6.76 30.62-4.8l65.35 12.37c4.62.87 9.35.06 14 1.08 18.313 3.887 30.28 21.55 27.1 40-.6 3.4.25 4.54 3.34 5.6 16.85 5.74 26.42 22.2 23.2 39.82-.46 2.5-.2 3.27 2.37 4.15 17.8 6.15 26.85 20.82 24.28 39.6-.44 3.25.38 4.14 3.22 5.13 24 8.3 31.85 37 15.35 56.24-2.44 2.85-2.77 4.34.1 7.1 9.48 9.08 18.68 18.44 27.9 27.8 1.74 1.76 3 2.2 5.6 1.2 14-5.44 26.72-3 37.65 7.45 5.83 5.58 11.53 11.3 17.15 17.1 13.9 14.33 14.08 34.64 0 48.76q-53.94 54.2-108.2 108.1c-14.1 14-34.6 13.87-48.76 0l-17.14-17.13c-10.44-10.9-13.13-23.5-7.5-37.57 1-2.48.66-3.8-1.14-5.58q-18.5-18.25-36.84-36.7c-1.3-1.3-2.45-2.56-4.68-2.3-10.78 1.23-21.5-.47-32.25-.72-3.2-.07-6.4 0-9.58-.06a18.06 18.06 0 0 0-13.81 6c-10.76 11.13-21.8 22-32.83 32.84-1.8 1.8-2.2 3.06-1 5.5 6.7 14.08 4.24 28.26-6.6 39.43-4.92 5.07-10.17 9.83-14.93 15.05-5.8 6.34-13 10-21 12.43zm140.2-348.86c0 19-13.78 34.23-31.78 35.82-2.6.23-3.68.8-4.1 3.63q-4.15 28.3-32.1 31.9c-2.22.28-3.3.83-3.4 3.25-.66 16.7-15.27 31.5-32.27 32.3-2.27.1-3 1-3.25 3.3-2.77 25.38-27.3 39.38-50.42 28.73-2.43-1.12-3.73-.9-5.55 1l-27.9 27.8c-2.57 2.48-1.93 3.7.2 5.83q44.06 43.77 87.9 87.75c2.42 2.43 3.62 2.2 5.86-.08l33.86-34c6-6 13.24-8.9 21.55-9.73 10.28-1 20.52-.12 30.74.7 15.14 1.23 28.93-.77 38.8-14a13.69 13.69 0 0 1 1.79-1.78c4.58-4.12 10.47-4.25 14.5-.32s4.3 9.9 0 14.44a161.35 161.35 0 0 1-12.71 12.25c-2.2 1.86-2.5 2.7-.34 4.8q14.48 14.08 28.58 28.54c2.13 2.18 3.18 1.77 5.1-.15q44.2-44.33 88.6-88.47c2.06-2 2-3.1 0-5.1L404.65 312c-5.58-5.57-5.63-5.62-11.45 0-3.1 3-6.5 4.87-10.88 3.72-7.78-2.05-10.17-11.15-4.33-17.26 7.32-7.66 15.06-14.93 22.4-22.57 6-6.26 6-15.1.38-20.9-5.83-6-14.7-6.17-21.28-.25-2.75 2.48-5.23 5.24-7.9 7.8-5.08 4.9-10.84 5.3-15.2 1.13s-4.05-10.5.93-15.57c5.54-5.64 11.3-11.07 16.7-16.86 5.707-5.825 5.63-15.168-.17-20.9-5.83-5.76-14.52-5.85-20.9-.06-3.1 2.83-6 5.92-9 8.87-5.2 5.1-11.24 5.64-15.6 1.46-4.52-4.35-4.05-10.5 1.3-15.92l17.44-17.54c6.12-6.48 6-15.34.1-21.26s-14.85-5.73-21.27.37c-3.05 2.9-5.92 6-9 8.9-4.95 4.76-11 5.13-15.24 1-4.38-4.28-4-10.47 1-15.6l17.14-17.13c6.53-6.63 6.9-15.5 1-21.64-6-6.3-15.18-6.2-22 .47l-26.13 26c-1.7 1.67-2.12 2.92-.86 5.13 2.75 4.8 3.58 10.13 3.84 14.74zm219.28 204.9a14.79 14.79 0 0 0-4.74-10.05l-16.46-16.35c-6.52-6.32-14.17-6.5-20.55-.15q-54 53.75-107.8 107.66c-6.17 6.18-6.14 13.88-.12 20.15 5.47 5.7 11.1 11.26 16.78 16.75 6.55 6.33 14.1 6.52 20.52.14q54-53.73 107.82-107.64a14.58 14.58 0 0 0 4.54-10.51zM204.7 219.3c6.27-.12 11.08-2.78 13.6-8.6 2.67-6.13 1.72-12-3-16.76q-18.1-18.3-36.46-36.37c-6.6-6.44-15.64-6.35-21.62-.2-5.8 6-5.7 14.82.62 21.24l36 36.08a14.47 14.47 0 0 0 10.85 4.63zm35.6-35.45a14.72 14.72 0 0 0 14.54-18.05c-.67-3.2-2.2-5-5.45-6.4-21.27-9.13-36.92-24.1-45.6-45.8a6.88 6.88 0 0 0-4.79-4.53 14.85 14.85 0 0 0-17.1 6.36 14.67 14.67 0 0 0 2.27 18.5l45.3 45.3a14.52 14.52 0 0 0 10.82 4.6zm-56.17 56.1a12.36 12.36 0 0 0-3.3-9.24l-30.32-30.2c-5.53-5.2-14.35-4.32-19.67.95s-6.4 13.6-1.4 19.2a362.56 362.56 0 0 0 31.31 31.29c4.48 4 10.32 3.87 15.63 1.1s7.73-7.22 7.75-13.1zm-35.45 35.55a10.68 10.68 0 0 0-1.68-6.75c-4.55-6.5-9.92-12.36-16.67-16.5-6-3.7-13.62-1.82-18.16 3.57-4.25 5-4.8 12.92-.58 18.2a75.06 75.06 0 0 0 14 13.74c4.7 3.46 10.1 3.54 15.24.84s7.7-7.24 7.85-13.08zM279.8 112.62l-52.1-9.24c-5.53-.92-6.4.2-4.22 5.13 5.8 13.05 15.8 22.28 27.74 29.65 1.64 1 2.64.4 3.83-.8l24.74-24.74z" fill="#2a2a2b"/><path d="M81.76 14.13c.18-5.65 2.18-8.76 6.1-10.44a9.68 9.68 0 0 1 11.17 2c4.6 4.42 9.08 9 13.6 13.5l22.12 22.12c5.35 5.4 5.75 11.6 1.17 16-4.4 4.18-10.35 3.63-15.6-1.57l-34.26-34.2c-2.46-2.5-4.52-5.06-4.3-7.42zM374.6 49.6a9.39 9.39 0 0 1 3.15-7.15l36.4-36.3c4.58-4.5 10.76-4.43 14.8-.25 3.87 4 3.9 10.12-.37 14.47l-36.34 36.37c-3.3 3.3-7.32 4.22-11.56 2.46-3.84-1.6-6-4.73-6.1-9.6zM266.9 32.83v21.7c-.08 6.7-3.93 10.94-9.85 11.08s-10.36-4.34-10.4-11.1q-.12-21.7 0-43.4c0-6.7 4.45-11.26 10.42-11.1s9.76 4.5 9.83 11.12v21.7zM69.74 454.62a10 10 0 0 1-10-10.32c.075-5.6 4.666-10.06 10.255-9.985s10.06 4.666 9.985 10.255a10 10 0 0 1-10.24 10.05zM344.9 355.6a10 10 0 0 1-9.86-10.45 10.22 10.22 0 0 1 10.11-9.83 10.46 10.46 0 0 1 10.22 10.32c-.142 5.64-4.83 10.1-10.47 9.96z" fill="#ec6c0c"/></svg>