<svg xmlns="http://www.w3.org/2000/svg" viewBox="0 0 1080 1080" xmlns:v="https://vecta.io/nano"><path d="M299.8 939.5c-27.7-.1-42.9-22.3-31.6-46.1 8.3-17.3 20.1-33.1 30.9-49.2L554 464.7l196.4-291.1c4.2-6.2 8.9-12.6 14.7-17.3 12-9.7 26-10.6 38.5-1.7 13.1 9.3 15 23.6 8.4 37.2s-15.4 26.2-23.9 38.9L410.6 795.5l-81.4 123c-7.6 11.5-16.5 20.5-29.4 21z" fill="#ef6c00"/><path d="M698.9 591.4c1.7-52-2.1-104 3.1-156 1.9-18.9 8.4-32.4 28-35.5 17.2-2.7 31.2 9.3 35.7 30.3 2.1 10.2 3.1 20.5 3.1 30.9l-.1 220.6c-1 79-21.1 149.6-84.1 204.5-71.8 62.6-189.9 69.2-265.4 11.1-14.2-11-17.8-24.2-10.4-40.3 7.7-16.8 21.9-20.5 38.2-16.2 7.8 2.1 15 7 22.3 10.8 90.8 46.6 195.9 3.1 225.9-94.5 4.5-15.3 6.3-31.3 5.1-47.3-2.4-39.3.1-78.9-1.4-118.4zM324.8 488.9l.1-135.2c.9-126.3 123.7-229.9 248.4-210.9 28 4.3 53.4 13.8 77.6 27.5 25.1 14.2 32.8 31.7 22.7 50s-26.8 21.4-52.4 8.1c-49.6-25.8-99.4-28.9-148.6-1.1-53.3 30.1-83.9 76-84.7 138.3l-.3 253.7c0 6.9.2 13.9-.1 20.8-.9 22.1-13.8 36.5-32 36-17.4-.5-29.9-14.5-30.6-35.3-.6-18.7-.2-37.4-.2-56.1l.1-95.8z" fill="#212121"/></svg>